#!OML:ASF \\sashay\E\basketball\basketball\Project 1\Capture day 1\Session 1\Subject.ASF
:FULLY-SPECIFIED
:DEGREES
195
root -12.7254 14.0114 1.23595 -178.68 -46.0211 172.797
lowerback 28.5297 3.16864 -3.67446
upperback 12.2748 0.93063 -1.44573
thorax -2.03343 -0.500827 0.277107
lowerneck -8.83786 5.84531 -15.196
upperneck -10.8605 9.13874 10.3044
head -2.97994 4.74175 5.57599
rclavicle 7.31155e-014 -2.44505e-014
rhumerus -23.2211 -15.1568 -67.9053
rradius 48.1046
rwrist -18.7039
rhand -29.8204 38.9671
rfingers 7.12502
rthumb -3.14402 9.01052
lclavicle 7.31155e-014 -2.44505e-014
lhumerus -23.2722 5.17453 55.5795
lradius 71.8853
lwrist 31.6885
lhand -30.2751 17.8453
lfingers 7.12502
lthumb -3.58309 47.7949
rfemur -50.0235 -23.4111 23.1218
rtibia 74.8327
rfoot -16.8364 -12.5837
rtoes -40.4592
lfemur -41.9413 33.3251 -18.3898
ltibia 90.9483
lfoot 4.63444 -4.00842
ltoes -14.8866
196
root -13.1221 14.0503 1.24099 -178.29 -45.8601 172.706
lowerback 29.0119 3.00456 -3.96622
upperback 11.7729 0.682584 -1.41415
thorax -2.8149 -0.58603 0.552781
lowerneck -8.48174 6.12882 -15.358
upperneck -10.6254 9.47661 9.9488
head -3.00652 4.92502 5.46212
rclavicle -2.94046e-014 7.99798e-015
rhumerus -24.0299 -13.5989 -67.0699
rradius 48.5709
rwrist -18.7409
rhand -29.644 39.1072
rfingers 7.12502
rthumb -2.97367 9.14816
lclavicle -2.94046e-014 7.99798e-015
lhumerus -24.2345 6.00794 54.0232
lradius 72.3896
lwrist 33.0593
lhand -29.6947 18.6618
lfingers 7.12502
lthumb -3.02266 48.6201
rfemur -51.7208 -23.5131 26.4949
rtibia 72.2383
rfoot -17.1952 -10.2965
rtoes -41.9194
lfemur -42.5907 33.5726 -18.3546
ltibia 91.9239
lfoot 4.73148 -6.05188
ltoes -17.2036
197
root -13.5203 14.0819 1.24536 -177.861 -45.8217 172.298
lowerback 29.1223 2.77458 -4.37946
upperback 11.8111 0.236272 -1.60245
thorax -2.80744 -0.823598 0.717338
lowerneck -8.88772 6.44567 -14.7671
upperneck -10.3742 9.84742 9.13238
head -2.853 5.10902 5.11519
rclavicle 2.62396e-014 3.27001e-014
rhumerus -24.4761 -10.9201 -66.8433
rradius 49.8655
rwrist -20.064
rhand -29.6941 39.3569
rfingers 7.12502
rthumb -3.02203 9.39855
lclavicle 2.62396e-014 3.27001e-014
lhumerus -24.3988 7.50837 52.095
lradius 72.5748
lwrist 34.1021
lhand -29.1181 19.3295
lfingers 7.12502
lthumb -2.46577 49.295
rfemur -52.8563 -23.5381 29.0805
rtibia 69.5276
rfoot -17.5479 -7.32556
rtoes -43.5833
lfemur -42.831 33.5672 -18.5353
ltibia 92.4421
lfoot 3.60693 -6.11204
ltoes -19.1214
198
root -13.9094 14.0954 1.25012 -177.7 -45.8604 172.176
lowerback 29.2437 2.68375 -3.9801
upperback 11.9407 0.176333 -1.80863
thorax -2.71308 -0.850728 0.279498
lowerneck -10.6378 6.09786 -12.0508
upperneck -8.78164 9.16775 6.56155
head -1.79117 4.72664 4.00155
rclavicle -3.16565e-014 -7.05686e-015
rhumerus -25.8049 -9.17773 -66.11
rradius 51.7839
rwrist -21.7173
rhand -30.0005 39.4149
rfingers 7.12502
rthumb -3.31794 9.46102
lclavicle -3.16565e-014 -7.05686e-015
lhumerus -23.4623 8.33693 50.5814
lradius 72.3908
lwrist 34.9058
lhand -28.6404 19.6943
lfingers 7.12502
lthumb -2.00443 49.6647
rfemur -53.6058 -23.2232 31.3043
rtibia 66.7449
rfoot -17.8871 -3.73064
rtoes -44.555
lfemur -43.1248 33.4083 -18.414
ltibia 92.6006
lfoot 2.71552 -2.91624
ltoes -11.4725
199
root -14.2972 14.0954 1.25805 -177.641 -46.4966 172.077
lowerback 29.6998 2.48002 -3.47888
upperback 11.9131 0.0362986 -1.68332
thorax -2.94592 -0.901376 0.174744
lowerneck -8.17941 6.28904 -15.6107
upperneck -10.9033 9.60082 8.79527
head -3.12625 5.02239 5.1158
rclavicle 4.92675e-014 -4.92116e-014
rhumerus -27.4254 -7.99826 -64.7246
rradius 53.557
rwrist -22.85
rhand -30.251 39.4311
rfingers 7.12502
rthumb -3.55985 9.48107
lclavicle 4.92675e-014 -4.92116e-014
lhumerus -22.7409 9.16553 49.6485
lradius 72.1904
lwrist 35.1482
lhand -28.1135 20.1169
lfingers 7.12502
lthumb -1.49551 50.0914
rfemur -53.988 -23.0889 32.8729
rtibia 63.9791
rfoot -18.1183 0.380007
rtoes -44.8761
lfemur -43.5574 32.4641 -18.1469
ltibia 92.3419
lfoot 1.62621 0.103053
ltoes -8.91923
200
root -14.6828 14.09 1.26014 -177.319 -46.9471 171.314
lowerback 30.2933 2.30123 -3.94695
upperback 11.9907 -0.410574 -1.83506
thorax -3.11341 -1.1485 0.417155
lowerneck -8.63256 6.49003 -14.9934
upperneck -10.43 9.84864 8.27463
head -2.88947 5.13759 4.86868
rclavicle -1.11319e-014 -2.28602e-014
rhumerus -28.2593 -6.46485 -64.1899
rradius 54.885
rwrist -23.5089
rhand -30.2126 39.6373
rfingers 7.12502
rthumb -3.52278 9.68666
lclavicle -1.11319e-014 -2.28602e-014
lhumerus -22.5382 10.4436 47.872
lradius 72.0688
lwrist 35.3156
lhand -27.5847 20.5666
lfingers 7.12502
lthumb -0.98477 50.544
rfemur -53.7827 -22.4886 33.2177
rtibia 61.251
rfoot -18.0881 4.56611
rtoes -45.2582
lfemur -43.4529 31.4384 -18.0033
ltibia 91.4509
lfoot 0.106175 2.02804
ltoes -8.37543
201
root -15.0623 14.0697 1.25343 -176.951 -47.3475 170.454
lowerback 30.8021 2.31501 -4.47848
upperback 12.1335 -0.632348 -1.90944
thorax -3.16755 -1.29501 0.711725
lowerneck -8.40395 6.61737 -15.3408
upperneck -10.6307 10.0288 8.37664
head -3.03111 5.23794 4.93573
rclavicle -1.49585e-014 3.58806e-014
rhumerus -29.2302 -5.27554 -63.3532
rradius 56.1358
rwrist -24.2238
rhand -30.2395 39.9992
rfingers 7.12502
rthumb -3.54876 10.049
lclavicle -1.49585e-014 3.58806e-014
lhumerus -21.8337 11.2254 46.3351
lradius 71.8246
lwrist 35.912
lhand -27.207 21.1125
lfingers 7.12502
lthumb -0.620032 51.0914
rfemur -53.3022 -21.4001 32.926
rtibia 58.6772
rfoot -17.7792 8.18618
rtoes -45.6448
lfemur -43.2181 30.383 -17.698
ltibia 90.0339
lfoot -1.24796 2.66794
ltoes -8.71275
